<?xml version="1.0" encoding="UTF-8"?>
<svg width="9.525mm" height="7.5519mm" version="1.1" viewBox="0 0 9.525 7.5519" xmlns="http://www.w3.org/2000/svg">
 <g transform="translate(-123.85 -69.051)">
  <path d="m124.81 76.572c-0.0922-0.04858-0.13507-0.09784-0.25433-0.2919-0.60794-0.98929-0.83351-2.203-0.62192-3.3465 0.26936-1.4557 1.2006-2.7046 2.5147-3.3723 0.48729-0.24763 0.92644-0.39014 1.4615-0.4743 0.30115-0.04737 1.1107-0.04798 1.4064-0.0011 0.57489 0.0912 1.244 0.31594 1.3762 0.46222 0.21438 0.23729 0.0527 0.61083-0.26507 0.61246-0.0516 2.64e-4 -0.16327-0.03178-0.31651-0.0908-0.35736-0.13765-0.61008-0.20467-0.94822-0.25147l-0.17295-0.02394v0.319c0 0.29411-3e-3 0.3254-0.0419 0.40099-0.023 0.0451-0.0741 0.10761-0.11344 0.13893-0.066 0.05254-0.0828 0.05693-0.21703 0.05693-0.13426 0-0.15102-0.0044-0.21704-0.05693-0.0393-0.03131-0.0904-0.09383-0.11344-0.13893-0.0386-0.0756-0.0419-0.10688-0.0419-0.40099v-0.319l-0.17222 0.0239c-0.68585 0.09519-1.3418 0.36765-1.8936 0.78655-0.35218 0.26735-0.7568 0.71451-0.97604 1.0787-0.0103 0.01707 0.0658 0.06192 0.27113 0.15992 0.30847 0.1472 0.38597 0.20987 0.4264 0.34482 0.0482 0.16083-0.0368 0.3534-0.19068 0.43189-0.13308 0.06789-0.23832 0.04736-0.5636-0.10992-0.15287-0.07392-0.28402-0.12794-0.29144-0.12005-7e-3 0.0079-0.0358 0.08557-0.063 0.17261-0.26059 0.83217-0.25636 1.6963 0.0123 2.5014 0.0827 0.24795 0.28053 0.68234 0.3107 0.68234 0.0104 0 0.1294-0.05446 0.26435-0.12102 0.2778-0.13702 0.38215-0.15406 0.5183-0.0846 0.23873 0.12179 0.27302 0.4588 0.0625 0.61443-0.0292 0.02156-0.24067 0.1311-0.47002 0.24342-0.38143 0.1868-0.42583 0.20415-0.5206 0.20347-0.0571-3.96e-4 -0.12869-0.01396-0.15946-0.03019zm6.926-0.17299c-0.44709-0.21288-0.53034-0.26406-0.57737-0.355-0.13004-0.25148 0.0456-0.53955 0.32896-0.53955 0.0813 0 0.13998 0.02007 0.35357 0.12102 0.14084 0.06656 0.26546 0.12102 0.27693 0.12102 0.0115 0 0.0695-0.10263 0.12898-0.22808 0.45891-0.96812 0.51595-2.071 0.15828-3.0605-0.0365-0.10109-0.0879-0.24234-0.11407-0.31388-0.043-0.11739-0.0456-0.13909-0.0264-0.2223 0.0413-0.17915 0.17712-0.28994 0.3553-0.28994 0.23997 0 0.3314 0.11657 0.51356 0.65484 0.39488 1.1668 0.31482 2.4347-0.22515 3.566-0.11911 0.24952-0.29744 0.55627-0.3696 0.63575-0.065 0.07162-0.16862 0.11456-0.27633 0.11453-0.0868-1.7e-5 -0.14922-0.02417-0.52671-0.20391zm-3.3327-1.5019c-0.26022-0.0658-0.49614-0.20536-0.636-0.37622-0.15828-0.19336-0.26634-0.48549-0.26634-0.72001 0-0.25506 0.1307-0.58224 0.30217-0.75642 0.12955-0.13159 0.48428-0.39885 1.2239-0.92211 0.76569-0.54172 2.4394-1.6945 2.515-1.7322 0.0925-0.04614 0.27508-0.02639 0.36086 0.03904 0.13396 0.10217 0.18948 0.26829 0.1375 0.41136-0.0391 0.10752-1.7111 2.5259-2.2848 3.3048-0.26709 0.36256-0.37161 0.47924-0.51555 0.57552-0.19859 0.13282-0.32729 0.17231-0.58538 0.17962-0.11776 0.0033-0.23087 0.0018-0.25135-0.0034zm0.36831-0.75824c0.0746-0.03124 0.15301-0.11758 0.35702-0.3933 0.23384-0.31603 1.0943-1.5386 1.0869-1.5444-0.0147-0.01146-1.5982 1.1205-1.7854 1.2763-0.12533 0.1043-0.184 0.20577-0.18466 0.31935-7.9e-4 0.13542 0.0947 0.28759 0.2137 0.34073 0.0727 0.03245 0.23644 0.03313 0.31245 0.0013z" fill="#424242" stroke-width=".018618"/>
  <rect x="94.059" y="67.59" width="9.525" height="9.525" fill="#fff" fill-rule="evenodd" stroke-width="0"/>
 </g>
</svg>
