<?xml version="1.0" encoding="UTF-8"?>
<svg width="33.496" height="35.931" version="1.1" viewBox="0 0 8.8625 9.5068" xmlns="http://www.w3.org/2000/svg">
 <g transform="translate(-54.089 -32.084)" fill="#424242" stroke="#424242">
  <path d="m60.76 32.747c-0.08463 0.0041-0.16734 0.05237-0.19439 0.14255-0.01938 0.06452-0.01268 0.10242 0.07267 0.41516 0.05168 0.18936 0.09155 0.35118 0.08887 0.35916-0.0028 8e-3 -0.0629-0.02327-0.1333-0.06896-0.92334-0.59923-2.1943-0.74114-3.3069-0.3698-0.6667 0.22252-1.2446 0.62017-1.7097 1.177-0.47997 0.57465-0.78799 1.2942-0.8803 2.0568-0.02409 0.19923-0.02409 0.66116 0 0.8604 0.02917 0.24083 0.08771 0.51398 0.15828 0.73729 0.08042 0.25434 0.1027 0.2974 0.17588 0.34203 0.07044 0.04299 0.12471 0.04535 0.20272 0.0083 0.06893-0.03271 0.12098-0.11271 0.1208-0.18559-8.9e-5 -0.02862-0.02886-0.13638-0.06387-0.23928-0.11424-0.33589-0.15708-0.59039-0.168-0.9923-0.0075-0.27698-0.0032-0.40362 0.02036-0.56696 0.09007-0.62375 0.31956-1.1643 0.7035-1.6578 0.15255-0.19608 0.4734-0.51184 0.66046-0.65027 0.36855-0.27275 0.87794-0.49723 1.3348-0.58825 0.76934-0.15329 1.6109-0.04488 2.2683 0.29251 0.19038 0.0977 0.5099 0.30837 0.49199 0.32444-0.0044 0.0039-0.19302 0.02956-0.41932 0.05692-0.50164 0.06066-0.53313 0.06829-0.5952 0.14209-0.04299 0.05062-0.04833 0.07027-0.04027 0.14949 0.01154 0.12013 0.08694 0.19393 0.19809 0.19393 0.11432 0 1.409-0.1642 1.4639-0.18559 0.07071-0.02756 0.12534-0.09294 0.13653-0.16384 7e-3 -0.04446-0.0427-0.25387-0.17495-0.73867-0.10152-0.37214-0.19384-0.69956-0.20503-0.72756-0.0349-0.08716-0.12133-0.12725-0.20596-0.12311zm1.1978 2.5613c-0.04411-0.0019-0.09052 0.0068-0.12774 0.02592-0.0494 0.02554-0.11154 0.12421-0.11154 0.17772 3e-6 0.01402 0.033 0.12318 0.07313 0.24252 0.37104 1.1044 0.22043 2.1791-0.4346 3.0991-0.14528 0.20404-0.44691 0.5244-0.64194 0.68174-1.0456 0.84359-2.4248 1.0259-3.5929 0.47486-0.19574-0.09233-0.51359-0.27504-0.50078-0.28788 0.0038-0.0038 0.16612 4.74e-4 0.36101 0.0097 0.39288 0.01857 0.44443 0.0099 0.50587-0.08377 0.01953-0.02976 0.03378-0.08436 0.03378-0.13098 0-0.06826-0.0096-0.08831-0.06526-0.13931-0.07776-0.07126-0.07313-0.07093-0.99786-0.10506-0.67969-0.0251-0.67105-0.02658-0.73312 0.10367-0.02821 0.05926-0.02617 0.10154 0.03841 0.772 0.03753 0.38998 0.07643 0.73548 0.08655 0.76783 0.01013 0.03236 0.04332 0.07959 0.07359 0.10506 0.10244 0.0862 0.27471 0.0432 0.3263-0.08146 0.02095-0.05053 0.01853-0.1215-0.01714-0.49476-0.02284-0.2396-0.0383-0.44376-0.03471-0.45357 0.0036-0.0098 0.09672 0.04298 0.20735 0.1171 0.47233 0.31643 1.0418 0.53563 1.6116 0.62065 0.25581 0.0382 0.75283 0.03899 1.0182 0.0014 1.739-0.24631 3.1177-1.6081 3.3615-3.3203 0.03529-0.24822 0.03051-0.80061-0.0093-1.0515-0.06948-0.43876-0.22719-0.94419-0.31658-1.0145-0.028-0.02204-0.06974-0.03421-0.11386-0.0361zm-3.5818 0.17125c-0.0077 2.28e-4 -0.01522 7.12e-4 -0.02315 0.0014-0.11608 0.0096-0.19955 0.06219-0.24298 0.15366-0.02606 0.05602-0.03055 0.16102-0.03055 0.8118 0 0.71692 0.0014 0.75012 0.03796 0.80902 0.04352 0.07043 0.11513 0.1221 0.19716 0.14255h1e-3c0.03127 0.0078 0.36148 0.01289 0.73404 0.01112 0.67133-0.0033 0.67795-0.0038 0.747-0.04674 0.20237-0.12586 0.19756-0.43195-0.0088-0.54475-0.05278-0.02886-0.12687-0.03359-0.57252-0.03888l-0.51142-6e-3 -0.0065-0.54104-6e-3 -0.54105-0.04999-0.07591c-0.06239-0.09411-0.15018-0.13861-0.26529-0.13518z" fill="#424242" stroke="#424242" stroke-width=".19304"/>
 </g>
</svg>
