<?xml version="1.0" encoding="UTF-8" standalone="no"?>
<svg
   width="16"
   height="16"
   viewBox="0 0 16 16"
   fill="none"
   version="1.1"
   id="svg6"
   xmlns="http://www.w3.org/2000/svg"
   xmlns:svg="http://www.w3.org/2000/svg">
  <defs
     id="defs10" />
  <path
     d="m 4.75,1.8090551 a 0.33712126,0.33712126 0 0 0 -0.477589,0 L 2.483421,3.5876522 1.8457009,2.966225 a 0.33712126,0.33712126 0 0 0 -0.4775888,0 L 0.9270438,3.4078533 a 0.33712126,0.33712126 0 0 0 0,0.4775891 l 1.3369665,1.3316291 a 0.35903414,0.35903414 0 0 0 0.4947264,0 l 0.437977,-0.438819 2.028345,-2.028066 a 0.33964967,0.33964967 0 0 0 0.00252,-0.4775889 z m 0,4.4721949 a 0.33712126,0.33712126 0 0 0 -0.477589,0 L 2.483421,8.0713633 1.8457009,7.4504991 a 0.33712126,0.33712126 0 0 0 -0.4775888,0 L 0.9270438,7.8912855 a 0.33712126,0.33712126 0 0 0 0,0.4775891 l 1.3335967,1.3344386 a 0.3587532,0.3587532 0 0 0 0.494445,0 L 3.1961509,9.2625262 5.2244983,7.2336188 a 0.33712126,0.33712126 0 0 0 0.00252,-0.4747798 z m -2.1241456,4.868875 c -0.7441953,0 -1.3650599,0.604008 -1.3650599,1.348484 0,0.744477 0.6214275,1.348486 1.3650599,1.348486 a 1.3484851,1.3484851 0 0 0 0,-2.69697 z M 14.762219,11.59962 H 6.6713095 a 0.44949502,0.44949502 0 0 0 -0.4494934,0.449494 v 0.898991 a 0.44949502,0.44949502 0 0 0 0.4494934,0.449493 h 8.0909095 a 0.44949502,0.44949502 0 0 0 0.449496,-0.449493 V 12.049114 A 0.44949502,0.44949502 0 0 0 14.762219,11.59962 Z m 0,-8.9899018 H 6.6713095 A 0.44949502,0.44949502 0 0 0 6.2218161,3.0592139 V 3.9582032 A 0.44949502,0.44949502 0 0 0 6.6713095,4.407699 H 14.762219 A 0.44949502,0.44949502 0 0 0 15.211715,3.9582032 V 3.0592139 A 0.44949502,0.44949502 0 0 0 14.762219,2.6097182 Z m 0,4.4949509 H 6.6713095 A 0.44949502,0.44949502 0 0 0 6.2218161,7.5541649 V 8.4531541 A 0.44949502,0.44949502 0 0 0 6.6713095,8.9026499 H 14.762219 A 0.44949502,0.44949502 0 0 0 15.211715,8.4531541 V 7.5541649 A 0.44949502,0.44949502 0 0 0 14.762219,7.1046691 Z"
     id="path835"
     style="fill:#424242;fill-opacity:1;stroke-width:0.0280934" />
</svg>
