<?xml version="1.0" encoding="UTF-8"?>
<svg width="35.574" height="36.545" version="1.1" viewBox="0 0 9.4123 9.6693" xmlns="http://www.w3.org/2000/svg">
 <g transform="translate(-54.001 -32.087)">
  <path d="m60.303 41.627c-0.28134-0.02266-0.55847-0.08758-0.82008-0.19214-0.3615-0.14448-0.62227-0.31398-0.91591-0.59537l-0.20216-0.19372-1.6939-0.0061c-1.5764-0.0056-1.7009-0.0084-1.7952-0.03952-0.38322-0.12633-0.67482-0.44968-0.73579-0.81592-0.0153-0.09163-0.0196-0.90855-0.0158-2.9826l5e-3 -2.8564 0.0412-0.12112c0.14487-0.42595 0.54788-0.71739 0.992-0.71739h0.0957l8e-3 -0.17296c6e-3 -0.15447 0.0149-0.18783 0.0763-0.31208 0.14365-0.29063 0.45206-0.45443 0.75967-0.40346 0.38654 0.06406 0.63422 0.36212 0.63492 0.7641l2.2e-4 0.12439h2.6906l2e-4 -0.14282c4.3e-4 -0.29393 0.12651-0.51585 0.37226-0.65515 0.11999-0.06801 0.23644-0.09237 0.39722-0.08305 0.40533 0.02347 0.68547 0.35122 0.68609 0.80271l7e-5 0.07832h0.11683c0.44657 0 0.84482 0.29556 0.99328 0.73715 0.0394 0.11736 0.0405 0.14581 0.0503 1.4026l0.01 1.2828 0.1503 0.11323c0.19612 0.14777 0.45863 0.4266 0.59857 0.63582 0.37282 0.55738 0.53545 1.1703 0.47808 1.8018-0.0668 0.73564-0.37889 1.3586-0.92961 1.8557-0.54005 0.4875-1.318 0.75008-2.048 0.6913zm0.59245-0.43085c0.76631-0.12072 1.4565-0.6526 1.7806-1.3722 0.0769-0.17079 0.15218-0.4201 0.18316-0.60674 0.0278-0.16775 0.0278-0.57222 0-0.73997-0.14624-0.88129-0.75918-1.6027-1.6012-1.8846-0.59367-0.19875-1.3121-0.14238-1.8444 0.14471-0.74444 0.40155-1.2117 1.1068-1.2732 1.9217-0.0878 1.1647 0.65852 2.2088 1.7827 2.494 0.30942 0.07849 0.65144 0.09365 0.9723 0.04311zm-0.58151-1.9584c-0.0345-0.0121-0.0801-0.0454-0.10137-0.074-0.0375-0.05048-0.0388-0.07395-0.0437-0.7962-5e-3 -0.8088-2e-3 -0.8388 0.0954-0.90293 0.0885-0.058 0.23869-0.02524 0.28146 0.06142 9e-3 0.01713 0.0195 0.3214 0.0246 0.67615l9e-3 0.645 0.96526 0.0098 0.0564 0.0564c0.10876 0.10876 0.0613 0.28801-0.0873 0.32926-0.0989 0.02748-1.1194 0.0233-1.1999-0.0049zm-2.2316 0.99206c0-0.0048-0.0331-0.07435-0.0735-0.15455-0.0832-0.16505-0.18565-0.46072-0.23072-0.66601-0.0414-0.18847-0.0575-0.71549-0.0282-0.92032 0.17944-1.2535 1.1338-2.2154 2.378-2.3969 0.076-0.01109 0.25017-0.02014 0.38701-0.02013 0.35282 3.8e-5 0.6406 0.05047 0.95992 0.1682 0.0815 0.03007 0.15201 0.05469 0.15655 0.05469 4e-3 0 7e-3 -0.24672 3e-3 -0.54825l-5e-3 -0.54825-7.105-0.0094 0.01 4.562 0.0606 0.12322c0.093 0.18903 0.25582 0.31072 0.46218 0.34559 0.0902 0.01525 3.0247 0.02496 3.0247 0.01zm3.5526-5.8286c-8e-3 -0.33791-0.013-0.3945-0.0487-0.48646-0.0893-0.22968-0.30531-0.38206-0.56505-0.39873l-0.13765-0.0089-4e-5 0.22817c-4e-5 0.25215-0.0247 0.33678-0.11054 0.37968-0.0339 0.01691-0.19898 0.02309-0.62288 0.02329-0.61309 2.87e-4 -0.65776-0.0055-0.70345-0.09085-0.0108-0.0195-0.0189-0.14796-0.0189-0.28546v-0.25h-2.6906v0.22916c0 0.12604-9e-3 0.25043-0.018 0.27642-0.01 0.02599-0.0452 0.064-0.0783 0.08446-0.0578 0.03562-0.0861 0.03699-0.66543 0.03226l-0.60508-5e-3 -0.1074-0.12036v-0.50184l-0.13361 0.0087c-0.1649 0.01072-0.29062 0.06365-0.39768 0.16754-0.17607 0.17087-0.20586 0.28089-0.20586 0.76021v0.34002h7.1176zm-5.307-1.1163c-5e-3 -0.44289-6e-3 -0.4491-0.0513-0.51502-0.13569-0.19786-0.45059-0.18973-0.56633 0.01462-0.0399 0.07035-0.0416 0.09117-0.0418 0.51102l-2.9e-4 0.43768h0.66527zm4.1501 0.03814c0-0.22559-8e-3 -0.43851-0.0181-0.47315-0.0203-0.07079-0.0952-0.15739-0.1699-0.19641-0.0792-0.04139-0.23789-0.03346-0.30979 0.01546-0.14831 0.10094-0.16379 0.16492-0.16487 0.68186l-8e-4 0.3824h0.66343z" fill="#c5c5c5" stroke="#c5c5c5" stroke-width=".243"/>
 </g>
</svg>
