<?xml version="1.0" encoding="UTF-8" standalone="no"?>
<svg
   data-name="Layer 1"
   viewBox="0 0 24 24"
   version="1.1"
   id="svg4"
   xmlns="http://www.w3.org/2000/svg"
   xmlns:svg="http://www.w3.org/2000/svg">
  <defs
     id="defs8">
    <style
       id="style844">.cls-1{fill:#e7a990;}.cls-2{fill:#ad80dd;}.cls-3{fill:#e29375;}.cls-4{fill:#bc96e3;}.cls-5{fill:#756d78;}</style>
    <style
       id="style1998">
      .cls-1 {
        fill: none;
      }
    </style>
  </defs>
  <g
     data-name="Sea Anemone"
     id="Sea_Anemone"
     transform="translate(-39.397239,-23.352816)">
    <g
       id="g2014"
       transform="translate(105.6448,25.51137)">
      <g
         id="g2525"
         transform="matrix(0.82892907,0,0,0.82892907,-68.361613,-3.4714881)">
        <path
           d="M 25,5 H 22 V 4 A 2.0058,2.0058 0 0 0 20,2 H 12 A 2.0058,2.0058 0 0 0 10,4 V 5 H 7 A 2.0058,2.0058 0 0 0 5,7 v 21 a 2.0058,2.0058 0 0 0 2,2 h 7 V 28 H 7 V 7 h 3 v 3 H 22 V 7 h 3 v 6 h 2 V 7 A 2.0058,2.0058 0 0 0 25,5 Z M 20,8 H 12 V 4 h 8 z"
           id="path2004" />
        <rect
           class="cls-1"
           data-name="&lt;Transparent Rectangle&gt;"
           height="32"
           id="_Transparent_Rectangle_"
           width="32"
           x="0"
           y="0" />
        <path
           d="M 29.633409,23.738314 28.82149,21.236612 27.209752,16.282213 c -0.08168,-0.255918 -0.441655,-0.255918 -0.52454,0 l -1.611737,4.953189 h -5.345839 l -1.611132,-4.953189 c -0.08228,-0.255918 -0.444075,-0.255918 -0.525751,-0.0018 l -1.611738,4.954398 -0.811918,2.503517 c -0.0732,0.226877 0.0085,0.47735 0.200257,0.618922 l 7.033202,5.108675 7.0332,-5.10807 c 0.192393,-0.142177 0.274069,-0.39144 0.199653,-0.619527"
           id="path2129"
           style="stroke-width:0.605007" />
        <path
           d="m 13.693231,16.514604 h -3.496925 c -0.2633617,0 -0.4768528,-0.213491 -0.4768528,-0.476854 v -3.496925 c 0,-0.263362 0.2134911,-0.476853 0.4768528,-0.476853 h 3.496925 c 0.263362,0 0.476854,0.213491 0.476854,0.476853 v 3.496925 c 0,0.263363 -0.213492,0.476854 -0.476854,0.476854 z m -2.033441,-0.974162 1.827936,-1.827938 c 0.06207,-0.06207 0.06207,-0.162717 0,-0.224787 L 13.26294,13.26293 c -0.06207,-0.06207 -0.162715,-0.06208 -0.224797,0 l -1.490752,1.490744 -0.695998,-0.695998 c -0.06207,-0.06207 -0.162715,-0.06207 -0.224796,0 l -0.224787,0.224787 c -0.06207,0.06207 -0.06207,0.162716 0,0.224786 l 1.033183,1.033182 c 0.06208,0.06209 0.162715,0.06209 0.224797,1.1e-5 z"
           id="path2404"
           style="stroke-width:0.00993442" />
        <path
           d="m 13.693231,22.514604 h -3.496925 c -0.2633617,0 -0.4768528,-0.213491 -0.4768528,-0.476854 v -3.496925 c 0,-0.263362 0.2134911,-0.476853 0.4768528,-0.476853 h 3.496925 c 0.263362,0 0.476854,0.213491 0.476854,0.476853 v 3.496925 c 0,0.263363 -0.213492,0.476854 -0.476854,0.476854 z m -2.033441,-0.974162 1.827936,-1.827938 c 0.06207,-0.06207 0.06207,-0.162717 0,-0.224787 L 13.26294,19.26293 c -0.06207,-0.06207 -0.162715,-0.06208 -0.224797,0 l -1.490752,1.490744 -0.695998,-0.695998 c -0.06207,-0.06207 -0.162715,-0.06207 -0.224796,0 l -0.224787,0.224787 c -0.06207,0.06207 -0.06207,0.162716 0,0.224786 l 1.033183,1.033182 c 0.06208,0.06209 0.162715,0.06209 0.224797,1.1e-5 z"
           id="path2413"
           style="stroke-width:0.00993442" />
        <rect
           style="fill:#000000;fill-rule:evenodd;stroke-width:1.51181"
           id="rect2437"
           width="8.1446457"
           height="1.6022253"
           x="14.855354"
           y="13" />
      </g>
    </g>
  </g>
</svg>
