<?xml version="1.0" encoding="UTF-8"?>
<!-- Created with Inkscape (http://www.inkscape.org/) -->
<svg width="7.8145mm" height="8.8747mm" version="1.1" viewBox="0 0 7.8145 8.8747" xmlns="http://www.w3.org/2000/svg">
 <g transform="translate(-94.404 -61.654)">
  <path transform="matrix(.26458 0 0 .26458 94.404 61.654)" d="m11.52 0c-1.3246 0.016252-2.5894 0.87541-2.957 2.1992-0.091691 0.33014-0.16744 0.68981-0.16797 0.80078-6.954e-4 0.1553-0.82427 0.20117-3.5723 0.20117h-3.5684l-1.2539 1.2539v13.779c5.9339e-4 13.531 0.0066128 13.79 0.32617 14.314 0.17896 0.29356 0.56088 0.6351 0.84766 0.75977 0.42835 0.18622 2.2783 0.22743 10.367 0.23242 9.0627 0.005669 9.891-0.015473 10.4-0.27539 0.82084-0.41855 1.155-0.97931 1.2578-2.1133l-0.056641-0.017578h-10.031-10.664l0.14648-12.84-0.097656-12.498h2.0801 1.4453l0.375 1.2168c0.542 1.1422 0.7573 1.1907 5.3613 1.1914 4.6081 6.803e-4 4.8005-0.040731 5.3164-1.1621l0.27734-1.3848 1.252-0.0039062 2.0801-0.0039063v2.1406c0 0.74883 0.069005 1.5406 0.15234 1.7598 0.55213 1.4522 1.7037 1.4522 2.2559 0 0.083149-0.21921 0.15033-1.3192 0.14844-2.4453-0.003779-2.2545-0.26221-3.1914-0.99219-3.6074-0.26835-0.15288-1.3917-0.23943-3.8984-0.29688l-3.5215-0.080078-0.28906-0.85352c-0.34397-1.0169-0.83272-1.5848-1.707-1.9883-0.42392-0.19567-0.87096-0.28466-1.3125-0.2793zm0.11133 1.5801c0.777 0 1.3636 0.1017 1.7578 0.30273 0.39417 0.19824 0.62939 0.44248 0.70898 0.73438 0.079597 0.28913 0.11914 0.88704 0.11914 1.793v2.75h-2.2324v-0.48633c-0.14026 0.19552-0.32324 0.34226-0.54688 0.44141-0.21986 0.096378-0.48402 0.14453-0.79102 0.14453-0.40174 0-0.77009-0.081696-1.1074-0.24414-0.33354-0.16524-0.5-0.5227-0.5-1.0762v-0.45117c0-0.41028 0.087496-0.6892 0.26562-0.83789 0.17813-0.14869 0.62118-0.32322 1.3262-0.52148 0.75426-0.21479 1.1579-0.35926 1.2109-0.43359 0.053064-0.074343 0.078125-0.22457 0.078125-0.45312 0-0.28637-0.029145-0.47323-0.089844-0.55859-0.056844-0.088101-0.15458-0.13281-0.29102-0.13281-0.15541 0-0.25115 0.038787-0.28906 0.11328-0.037795 0.071622-0.056641 0.25881-0.056641 0.56445-0.699-0.15507-1.3205-0.45584-1.9551-0.77148 0.13644-0.23131 0.40695-0.4351 0.8125-0.61133 0.40556-0.17624 0.93194-0.26562 1.5801-0.26562zm0.28906 2.9746c-0.36764 0.19552-0.57998 0.35999-0.64062 0.49219-0.056844 0.13217-0.085938 0.32249-0.085938 0.57031 0 0.28362 0.025236 0.46622 0.074219 0.54883 0.053065 0.082583 0.15501 0.12305 0.30664 0.12305 0.14404 0 0.23757-0.030518 0.2793-0.09375 0.045505-0.066066 0.068359-0.23833 0.068359-0.51367l-0.001953-1.127zm9.4453 7.6426c-0.88903 0.001969-1.7674 0.12139-2.4609 0.35742-3.3315 1.1337-5.668 4.3183-5.668 7.7266 0 3.9887 2.9804 7.4893 6.9414 8.1523 1.5357 0.25708 3.5525-0.099525 5.0469-0.89062 1.2703-0.67248 2.8082-2.2036 3.3965-3.3809 2.3075-4.6176 0.074381-10.098-4.7324-11.619-0.73591-0.23286-1.6345-0.34767-2.5234-0.3457zm-15.393 0.20508v1.9375 1.9375h2.0176 2.0176v-1.9375-1.9375h-2.0176-2.0176zm1.1289 0.96875h0.88867 0.88672v0.96875 0.96875h-0.88672-0.88867v-0.96875-0.96875zm10.818 2.4062h0.001953c0.083715 9.05e-4 0.16816 0.049941 0.19922 0.14648l1.2246 3.7676h4.0664l1.2246-3.7676c0.063118-0.19461 0.33841-0.19461 0.40039 0l1.2246 3.7676 0.61719 1.9023c0.056693 0.17348-0.002611 0.36451-0.15039 0.47266l-5.3496 3.8848-5.3477-3.8867c-0.14589-0.10768-0.20802-0.29814-0.15234-0.4707l0.61719-1.9043 1.2246-3.7676c0.030756-0.095905 0.11551-0.14395 0.19922-0.14453zm-11.947 2.4355v2.0176 2.0195h2.0176 2.0176v-2.0195-2.0176h-2.0176-2.0176zm1.1289 1.1309h0.88867 0.88672v0.88672 0.88867h-0.88672-0.88867v-0.88867-0.88672zm-1.1289 4.8418v1.9375 1.9375h2.0176 2.0176v-1.9375-1.9375h-2.0176-2.0176zm1.1289 0.96875h0.88867 0.88672v0.96875 0.96875h-0.88672-0.88867v-0.96875-0.96875z" stroke-width="0"/>
 </g>
</svg>
